<mxfile host="app.diagrams.net" agent="Mozilla/5.0 (Windows NT 10.0; Win64; x64) AppleWebKit/537.36 (KHTML, like Gecko) Chrome/140.0.0.0 Safari/537.36 Edg/140.0.0.0" version="28.2.5">
  <diagram name="Página-1" id="ycfHMWERXlzdLFj-Gt1v">
    <mxGraphModel dx="2493" dy="2602" grid="1" gridSize="10" guides="1" tooltips="1" connect="1" arrows="1" fold="1" page="1" pageScale="1" pageWidth="827" pageHeight="1169" math="0" shadow="0">
      <root>
        <mxCell id="0" />
        <mxCell id="1" parent="0" />
        <mxCell id="Yzk3Fqs6VaE2fxgBx44S-3" value="" style="edgeStyle=orthogonalEdgeStyle;rounded=0;orthogonalLoop=1;jettySize=auto;html=1;" edge="1" parent="1" source="Yzk3Fqs6VaE2fxgBx44S-1" target="Yzk3Fqs6VaE2fxgBx44S-2">
          <mxGeometry relative="1" as="geometry" />
        </mxCell>
        <mxCell id="Yzk3Fqs6VaE2fxgBx44S-1" value="I" style="ellipse;whiteSpace=wrap;html=1;" vertex="1" parent="1">
          <mxGeometry x="354" y="-130" width="120" height="80" as="geometry" />
        </mxCell>
        <mxCell id="Yzk3Fqs6VaE2fxgBx44S-33" style="edgeStyle=orthogonalEdgeStyle;rounded=0;orthogonalLoop=1;jettySize=auto;html=1;" edge="1" parent="1" source="Yzk3Fqs6VaE2fxgBx44S-2" target="Yzk3Fqs6VaE2fxgBx44S-31">
          <mxGeometry relative="1" as="geometry" />
        </mxCell>
        <mxCell id="Yzk3Fqs6VaE2fxgBx44S-2" value="Ler N" style="shape=parallelogram;perimeter=parallelogramPerimeter;whiteSpace=wrap;html=1;fixedSize=1;" vertex="1" parent="1">
          <mxGeometry x="354" y="20" width="120" height="60" as="geometry" />
        </mxCell>
        <mxCell id="Yzk3Fqs6VaE2fxgBx44S-7" value="" style="edgeStyle=orthogonalEdgeStyle;rounded=0;orthogonalLoop=1;jettySize=auto;html=1;entryX=0;entryY=0.75;entryDx=0;entryDy=0;" edge="1" parent="1" source="Yzk3Fqs6VaE2fxgBx44S-4" target="Yzk3Fqs6VaE2fxgBx44S-6">
          <mxGeometry relative="1" as="geometry">
            <mxPoint x="680" y="160" as="targetPoint" />
            <Array as="points">
              <mxPoint x="570" y="390" />
              <mxPoint x="570" y="204" />
            </Array>
          </mxGeometry>
        </mxCell>
        <mxCell id="Yzk3Fqs6VaE2fxgBx44S-10" value="1" style="edgeLabel;html=1;align=center;verticalAlign=middle;resizable=0;points=[];" vertex="1" connectable="0" parent="Yzk3Fqs6VaE2fxgBx44S-7">
          <mxGeometry x="0.7793" y="1" relative="1" as="geometry">
            <mxPoint as="offset" />
          </mxGeometry>
        </mxCell>
        <mxCell id="Yzk3Fqs6VaE2fxgBx44S-11" style="edgeStyle=orthogonalEdgeStyle;rounded=0;orthogonalLoop=1;jettySize=auto;html=1;" edge="1" parent="1" source="Yzk3Fqs6VaE2fxgBx44S-4" target="Yzk3Fqs6VaE2fxgBx44S-9">
          <mxGeometry relative="1" as="geometry">
            <Array as="points">
              <mxPoint x="570" y="390" />
              <mxPoint x="570" y="290" />
            </Array>
          </mxGeometry>
        </mxCell>
        <mxCell id="Yzk3Fqs6VaE2fxgBx44S-12" value="2" style="edgeLabel;html=1;align=center;verticalAlign=middle;resizable=0;points=[];" vertex="1" connectable="0" parent="Yzk3Fqs6VaE2fxgBx44S-11">
          <mxGeometry x="0.6645" y="-4" relative="1" as="geometry">
            <mxPoint as="offset" />
          </mxGeometry>
        </mxCell>
        <mxCell id="Yzk3Fqs6VaE2fxgBx44S-15" style="edgeStyle=orthogonalEdgeStyle;rounded=0;orthogonalLoop=1;jettySize=auto;html=1;" edge="1" parent="1" source="Yzk3Fqs6VaE2fxgBx44S-4" target="Yzk3Fqs6VaE2fxgBx44S-14">
          <mxGeometry relative="1" as="geometry" />
        </mxCell>
        <mxCell id="Yzk3Fqs6VaE2fxgBx44S-16" value="3" style="edgeLabel;html=1;align=center;verticalAlign=middle;resizable=0;points=[];" vertex="1" connectable="0" parent="Yzk3Fqs6VaE2fxgBx44S-15">
          <mxGeometry x="0.5392" y="-4" relative="1" as="geometry">
            <mxPoint as="offset" />
          </mxGeometry>
        </mxCell>
        <mxCell id="Yzk3Fqs6VaE2fxgBx44S-19" style="edgeStyle=orthogonalEdgeStyle;rounded=0;orthogonalLoop=1;jettySize=auto;html=1;entryX=0;entryY=0.5;entryDx=0;entryDy=0;" edge="1" parent="1" source="Yzk3Fqs6VaE2fxgBx44S-4" target="Yzk3Fqs6VaE2fxgBx44S-18">
          <mxGeometry relative="1" as="geometry">
            <Array as="points">
              <mxPoint x="570" y="390" />
              <mxPoint x="570" y="490" />
            </Array>
          </mxGeometry>
        </mxCell>
        <mxCell id="Yzk3Fqs6VaE2fxgBx44S-20" value="4" style="edgeLabel;html=1;align=center;verticalAlign=middle;resizable=0;points=[];" vertex="1" connectable="0" parent="Yzk3Fqs6VaE2fxgBx44S-19">
          <mxGeometry x="0.7171" y="-1" relative="1" as="geometry">
            <mxPoint as="offset" />
          </mxGeometry>
        </mxCell>
        <mxCell id="Yzk3Fqs6VaE2fxgBx44S-22" style="edgeStyle=orthogonalEdgeStyle;rounded=0;orthogonalLoop=1;jettySize=auto;html=1;" edge="1" parent="1" source="Yzk3Fqs6VaE2fxgBx44S-4" target="Yzk3Fqs6VaE2fxgBx44S-21">
          <mxGeometry relative="1" as="geometry">
            <Array as="points">
              <mxPoint x="570" y="390" />
              <mxPoint x="570" y="590" />
            </Array>
          </mxGeometry>
        </mxCell>
        <mxCell id="Yzk3Fqs6VaE2fxgBx44S-23" value="5" style="edgeLabel;html=1;align=center;verticalAlign=middle;resizable=0;points=[];" vertex="1" connectable="0" parent="Yzk3Fqs6VaE2fxgBx44S-22">
          <mxGeometry x="0.8485" y="-3" relative="1" as="geometry">
            <mxPoint as="offset" />
          </mxGeometry>
        </mxCell>
        <mxCell id="Yzk3Fqs6VaE2fxgBx44S-26" style="edgeStyle=orthogonalEdgeStyle;rounded=0;orthogonalLoop=1;jettySize=auto;html=1;" edge="1" parent="1" source="Yzk3Fqs6VaE2fxgBx44S-4" target="Yzk3Fqs6VaE2fxgBx44S-25">
          <mxGeometry relative="1" as="geometry">
            <Array as="points">
              <mxPoint x="570" y="390" />
              <mxPoint x="570" y="680" />
            </Array>
          </mxGeometry>
        </mxCell>
        <mxCell id="Yzk3Fqs6VaE2fxgBx44S-27" value="6" style="edgeLabel;html=1;align=center;verticalAlign=middle;resizable=0;points=[];" vertex="1" connectable="0" parent="Yzk3Fqs6VaE2fxgBx44S-26">
          <mxGeometry x="0.8259" y="4" relative="1" as="geometry">
            <mxPoint as="offset" />
          </mxGeometry>
        </mxCell>
        <mxCell id="Yzk3Fqs6VaE2fxgBx44S-29" style="edgeStyle=orthogonalEdgeStyle;rounded=0;orthogonalLoop=1;jettySize=auto;html=1;" edge="1" parent="1" source="Yzk3Fqs6VaE2fxgBx44S-4" target="Yzk3Fqs6VaE2fxgBx44S-28">
          <mxGeometry relative="1" as="geometry">
            <Array as="points">
              <mxPoint x="570" y="390" />
              <mxPoint x="570" y="780" />
            </Array>
          </mxGeometry>
        </mxCell>
        <mxCell id="Yzk3Fqs6VaE2fxgBx44S-30" value="7" style="edgeLabel;html=1;align=center;verticalAlign=middle;resizable=0;points=[];" vertex="1" connectable="0" parent="Yzk3Fqs6VaE2fxgBx44S-29">
          <mxGeometry x="0.8501" y="-2" relative="1" as="geometry">
            <mxPoint as="offset" />
          </mxGeometry>
        </mxCell>
        <mxCell id="Yzk3Fqs6VaE2fxgBx44S-4" value="switch case N" style="shape=hexagon;perimeter=hexagonPerimeter2;whiteSpace=wrap;html=1;fixedSize=1;" vertex="1" parent="1">
          <mxGeometry x="354" y="350" width="120" height="80" as="geometry" />
        </mxCell>
        <mxCell id="Yzk3Fqs6VaE2fxgBx44S-48" style="edgeStyle=orthogonalEdgeStyle;rounded=0;orthogonalLoop=1;jettySize=auto;html=1;" edge="1" parent="1" source="Yzk3Fqs6VaE2fxgBx44S-6" target="Yzk3Fqs6VaE2fxgBx44S-40">
          <mxGeometry relative="1" as="geometry">
            <Array as="points">
              <mxPoint x="870" y="190" />
              <mxPoint x="870" y="900" />
            </Array>
          </mxGeometry>
        </mxCell>
        <mxCell id="Yzk3Fqs6VaE2fxgBx44S-6" value="Escrever &quot;Segunda Feira&quot;" style="shape=parallelogram;perimeter=parallelogramPerimeter;whiteSpace=wrap;html=1;fixedSize=1;" vertex="1" parent="1">
          <mxGeometry x="680" y="160" width="136" height="60" as="geometry" />
        </mxCell>
        <mxCell id="Yzk3Fqs6VaE2fxgBx44S-47" style="edgeStyle=orthogonalEdgeStyle;rounded=0;orthogonalLoop=1;jettySize=auto;html=1;" edge="1" parent="1" source="Yzk3Fqs6VaE2fxgBx44S-9" target="Yzk3Fqs6VaE2fxgBx44S-40">
          <mxGeometry relative="1" as="geometry">
            <Array as="points">
              <mxPoint x="870" y="290" />
              <mxPoint x="870" y="900" />
            </Array>
          </mxGeometry>
        </mxCell>
        <mxCell id="Yzk3Fqs6VaE2fxgBx44S-9" value="Escrever &quot;Terça-Feira" style="shape=parallelogram;perimeter=parallelogramPerimeter;whiteSpace=wrap;html=1;fixedSize=1;" vertex="1" parent="1">
          <mxGeometry x="668" y="260" width="142" height="60" as="geometry" />
        </mxCell>
        <mxCell id="Yzk3Fqs6VaE2fxgBx44S-46" style="edgeStyle=orthogonalEdgeStyle;rounded=0;orthogonalLoop=1;jettySize=auto;html=1;" edge="1" parent="1" source="Yzk3Fqs6VaE2fxgBx44S-14" target="Yzk3Fqs6VaE2fxgBx44S-40">
          <mxGeometry relative="1" as="geometry">
            <Array as="points">
              <mxPoint x="870" y="390" />
              <mxPoint x="870" y="900" />
            </Array>
          </mxGeometry>
        </mxCell>
        <mxCell id="Yzk3Fqs6VaE2fxgBx44S-14" value="Escrever &quot;Quarta-Feira&quot;" style="shape=parallelogram;perimeter=parallelogramPerimeter;whiteSpace=wrap;html=1;fixedSize=1;" vertex="1" parent="1">
          <mxGeometry x="668" y="360" width="152" height="60" as="geometry" />
        </mxCell>
        <mxCell id="Yzk3Fqs6VaE2fxgBx44S-45" style="edgeStyle=orthogonalEdgeStyle;rounded=0;orthogonalLoop=1;jettySize=auto;html=1;" edge="1" parent="1" source="Yzk3Fqs6VaE2fxgBx44S-18" target="Yzk3Fqs6VaE2fxgBx44S-40">
          <mxGeometry relative="1" as="geometry">
            <Array as="points">
              <mxPoint x="870" y="490" />
              <mxPoint x="870" y="900" />
            </Array>
          </mxGeometry>
        </mxCell>
        <mxCell id="Yzk3Fqs6VaE2fxgBx44S-18" value="Escrever &quot;Quinta-Feira" style="shape=parallelogram;perimeter=parallelogramPerimeter;whiteSpace=wrap;html=1;fixedSize=1;" vertex="1" parent="1">
          <mxGeometry x="668" y="460" width="142" height="60" as="geometry" />
        </mxCell>
        <mxCell id="Yzk3Fqs6VaE2fxgBx44S-44" style="edgeStyle=orthogonalEdgeStyle;rounded=0;orthogonalLoop=1;jettySize=auto;html=1;" edge="1" parent="1" source="Yzk3Fqs6VaE2fxgBx44S-21" target="Yzk3Fqs6VaE2fxgBx44S-40">
          <mxGeometry relative="1" as="geometry">
            <Array as="points">
              <mxPoint x="870" y="585" />
              <mxPoint x="870" y="900" />
            </Array>
          </mxGeometry>
        </mxCell>
        <mxCell id="Yzk3Fqs6VaE2fxgBx44S-21" value="Escrever &quot;Sexta-Feira&quot;" style="shape=parallelogram;perimeter=parallelogramPerimeter;whiteSpace=wrap;html=1;fixedSize=1;" vertex="1" parent="1">
          <mxGeometry x="660" y="554.5" width="142" height="60" as="geometry" />
        </mxCell>
        <mxCell id="Yzk3Fqs6VaE2fxgBx44S-43" style="edgeStyle=orthogonalEdgeStyle;rounded=0;orthogonalLoop=1;jettySize=auto;html=1;" edge="1" parent="1" source="Yzk3Fqs6VaE2fxgBx44S-25" target="Yzk3Fqs6VaE2fxgBx44S-40">
          <mxGeometry relative="1" as="geometry">
            <Array as="points">
              <mxPoint x="870" y="680" />
              <mxPoint x="870" y="900" />
            </Array>
          </mxGeometry>
        </mxCell>
        <mxCell id="Yzk3Fqs6VaE2fxgBx44S-25" value="Escrever &quot;Sabado&quot;" style="shape=parallelogram;perimeter=parallelogramPerimeter;whiteSpace=wrap;html=1;fixedSize=1;" vertex="1" parent="1">
          <mxGeometry x="660" y="650" width="140" height="60" as="geometry" />
        </mxCell>
        <mxCell id="Yzk3Fqs6VaE2fxgBx44S-41" style="edgeStyle=orthogonalEdgeStyle;rounded=0;orthogonalLoop=1;jettySize=auto;html=1;" edge="1" parent="1" source="Yzk3Fqs6VaE2fxgBx44S-28" target="Yzk3Fqs6VaE2fxgBx44S-40">
          <mxGeometry relative="1" as="geometry">
            <Array as="points">
              <mxPoint x="870" y="780" />
              <mxPoint x="870" y="900" />
            </Array>
          </mxGeometry>
        </mxCell>
        <mxCell id="Yzk3Fqs6VaE2fxgBx44S-28" value="Escrever &quot;Domingo&quot;" style="shape=parallelogram;perimeter=parallelogramPerimeter;whiteSpace=wrap;html=1;fixedSize=1;" vertex="1" parent="1">
          <mxGeometry x="661" y="750" width="139" height="60" as="geometry" />
        </mxCell>
        <mxCell id="Yzk3Fqs6VaE2fxgBx44S-34" style="edgeStyle=orthogonalEdgeStyle;rounded=0;orthogonalLoop=1;jettySize=auto;html=1;" edge="1" parent="1" source="Yzk3Fqs6VaE2fxgBx44S-31" target="Yzk3Fqs6VaE2fxgBx44S-4">
          <mxGeometry relative="1" as="geometry" />
        </mxCell>
        <mxCell id="Yzk3Fqs6VaE2fxgBx44S-35" value="Sim" style="edgeLabel;html=1;align=center;verticalAlign=middle;resizable=0;points=[];" vertex="1" connectable="0" parent="Yzk3Fqs6VaE2fxgBx44S-34">
          <mxGeometry x="-0.1556" y="4" relative="1" as="geometry">
            <mxPoint as="offset" />
          </mxGeometry>
        </mxCell>
        <mxCell id="Yzk3Fqs6VaE2fxgBx44S-38" style="edgeStyle=orthogonalEdgeStyle;rounded=0;orthogonalLoop=1;jettySize=auto;html=1;" edge="1" parent="1" source="Yzk3Fqs6VaE2fxgBx44S-31" target="Yzk3Fqs6VaE2fxgBx44S-36">
          <mxGeometry relative="1" as="geometry" />
        </mxCell>
        <mxCell id="Yzk3Fqs6VaE2fxgBx44S-49" value="Não" style="edgeLabel;html=1;align=center;verticalAlign=middle;resizable=0;points=[];" vertex="1" connectable="0" parent="Yzk3Fqs6VaE2fxgBx44S-38">
          <mxGeometry x="-0.1351" relative="1" as="geometry">
            <mxPoint as="offset" />
          </mxGeometry>
        </mxCell>
        <mxCell id="Yzk3Fqs6VaE2fxgBx44S-31" value="N&amp;lt;7 and N&amp;gt;1" style="rhombus;whiteSpace=wrap;html=1;" vertex="1" parent="1">
          <mxGeometry x="374" y="180" width="80" height="80" as="geometry" />
        </mxCell>
        <mxCell id="Yzk3Fqs6VaE2fxgBx44S-39" style="edgeStyle=orthogonalEdgeStyle;rounded=0;orthogonalLoop=1;jettySize=auto;html=1;" edge="1" parent="1" source="Yzk3Fqs6VaE2fxgBx44S-36" target="Yzk3Fqs6VaE2fxgBx44S-40">
          <mxGeometry relative="1" as="geometry">
            <mxPoint x="250" y="951" as="targetPoint" />
            <Array as="points">
              <mxPoint x="240" y="900" />
            </Array>
          </mxGeometry>
        </mxCell>
        <mxCell id="Yzk3Fqs6VaE2fxgBx44S-36" value="Escrever&amp;nbsp; &quot;erro&quot;" style="shape=parallelogram;perimeter=parallelogramPerimeter;whiteSpace=wrap;html=1;fixedSize=1;" vertex="1" parent="1">
          <mxGeometry x="190" y="190" width="120" height="60" as="geometry" />
        </mxCell>
        <mxCell id="Yzk3Fqs6VaE2fxgBx44S-40" value="F" style="ellipse;whiteSpace=wrap;html=1;" vertex="1" parent="1">
          <mxGeometry x="350" y="860" width="120" height="80" as="geometry" />
        </mxCell>
        <mxCell id="Yzk3Fqs6VaE2fxgBx44S-52" value="" style="edgeStyle=orthogonalEdgeStyle;rounded=0;orthogonalLoop=1;jettySize=auto;html=1;" edge="1" parent="1" source="Yzk3Fqs6VaE2fxgBx44S-50" target="Yzk3Fqs6VaE2fxgBx44S-51">
          <mxGeometry relative="1" as="geometry" />
        </mxCell>
        <mxCell id="Yzk3Fqs6VaE2fxgBx44S-50" value="I" style="ellipse;whiteSpace=wrap;html=1;" vertex="1" parent="1">
          <mxGeometry x="1460" y="-160" width="120" height="80" as="geometry" />
        </mxCell>
        <mxCell id="Yzk3Fqs6VaE2fxgBx44S-54" value="" style="edgeStyle=orthogonalEdgeStyle;rounded=0;orthogonalLoop=1;jettySize=auto;html=1;" edge="1" parent="1" source="Yzk3Fqs6VaE2fxgBx44S-51" target="Yzk3Fqs6VaE2fxgBx44S-53">
          <mxGeometry relative="1" as="geometry" />
        </mxCell>
        <mxCell id="Yzk3Fqs6VaE2fxgBx44S-51" value="Ler N" style="shape=parallelogram;perimeter=parallelogramPerimeter;whiteSpace=wrap;html=1;fixedSize=1;" vertex="1" parent="1">
          <mxGeometry x="1460" y="10" width="120" height="60" as="geometry" />
        </mxCell>
        <mxCell id="Yzk3Fqs6VaE2fxgBx44S-56" value="" style="edgeStyle=orthogonalEdgeStyle;rounded=0;orthogonalLoop=1;jettySize=auto;html=1;" edge="1" parent="1" source="Yzk3Fqs6VaE2fxgBx44S-53" target="Yzk3Fqs6VaE2fxgBx44S-55">
          <mxGeometry relative="1" as="geometry" />
        </mxCell>
        <mxCell id="Yzk3Fqs6VaE2fxgBx44S-82" value="Sim" style="edgeLabel;html=1;align=center;verticalAlign=middle;resizable=0;points=[];" vertex="1" connectable="0" parent="Yzk3Fqs6VaE2fxgBx44S-56">
          <mxGeometry x="0.0634" y="2" relative="1" as="geometry">
            <mxPoint as="offset" />
          </mxGeometry>
        </mxCell>
        <mxCell id="Yzk3Fqs6VaE2fxgBx44S-59" value="" style="edgeStyle=orthogonalEdgeStyle;rounded=0;orthogonalLoop=1;jettySize=auto;html=1;" edge="1" parent="1" source="Yzk3Fqs6VaE2fxgBx44S-53" target="Yzk3Fqs6VaE2fxgBx44S-58">
          <mxGeometry relative="1" as="geometry" />
        </mxCell>
        <mxCell id="Yzk3Fqs6VaE2fxgBx44S-81" value="Não" style="edgeLabel;html=1;align=center;verticalAlign=middle;resizable=0;points=[];" vertex="1" connectable="0" parent="Yzk3Fqs6VaE2fxgBx44S-59">
          <mxGeometry x="-0.1761" y="-2" relative="1" as="geometry">
            <mxPoint x="2" y="-3" as="offset" />
          </mxGeometry>
        </mxCell>
        <mxCell id="Yzk3Fqs6VaE2fxgBx44S-53" value="N&amp;lt;0" style="rhombus;whiteSpace=wrap;html=1;" vertex="1" parent="1">
          <mxGeometry x="1480" y="140" width="80" height="80" as="geometry" />
        </mxCell>
        <mxCell id="Yzk3Fqs6VaE2fxgBx44S-91" style="edgeStyle=orthogonalEdgeStyle;rounded=0;orthogonalLoop=1;jettySize=auto;html=1;" edge="1" parent="1" source="Yzk3Fqs6VaE2fxgBx44S-55" target="Yzk3Fqs6VaE2fxgBx44S-85">
          <mxGeometry relative="1" as="geometry">
            <Array as="points">
              <mxPoint x="1275" y="980" />
            </Array>
          </mxGeometry>
        </mxCell>
        <mxCell id="Yzk3Fqs6VaE2fxgBx44S-55" value="Escrever &quot;Meteste água. Aguarda Processo de Secagem" style="shape=parallelogram;perimeter=parallelogramPerimeter;whiteSpace=wrap;html=1;fixedSize=1;" vertex="1" parent="1">
          <mxGeometry x="1130" y="145" width="290" height="70" as="geometry" />
        </mxCell>
        <mxCell id="Yzk3Fqs6VaE2fxgBx44S-61" value="" style="edgeStyle=orthogonalEdgeStyle;rounded=0;orthogonalLoop=1;jettySize=auto;html=1;" edge="1" parent="1" source="Yzk3Fqs6VaE2fxgBx44S-58" target="Yzk3Fqs6VaE2fxgBx44S-60">
          <mxGeometry relative="1" as="geometry" />
        </mxCell>
        <mxCell id="Yzk3Fqs6VaE2fxgBx44S-78" value="não" style="edgeLabel;html=1;align=center;verticalAlign=middle;resizable=0;points=[];" vertex="1" connectable="0" parent="Yzk3Fqs6VaE2fxgBx44S-61">
          <mxGeometry x="0.063" y="-2" relative="1" as="geometry">
            <mxPoint as="offset" />
          </mxGeometry>
        </mxCell>
        <mxCell id="Yzk3Fqs6VaE2fxgBx44S-67" value="" style="edgeStyle=orthogonalEdgeStyle;rounded=0;orthogonalLoop=1;jettySize=auto;html=1;" edge="1" parent="1" source="Yzk3Fqs6VaE2fxgBx44S-58" target="Yzk3Fqs6VaE2fxgBx44S-66">
          <mxGeometry relative="1" as="geometry" />
        </mxCell>
        <mxCell id="Yzk3Fqs6VaE2fxgBx44S-79" value="Sim" style="edgeLabel;html=1;align=center;verticalAlign=middle;resizable=0;points=[];" vertex="1" connectable="0" parent="Yzk3Fqs6VaE2fxgBx44S-67">
          <mxGeometry x="-0.1006" y="2" relative="1" as="geometry">
            <mxPoint as="offset" />
          </mxGeometry>
        </mxCell>
        <mxCell id="Yzk3Fqs6VaE2fxgBx44S-58" value="N&amp;lt;18" style="rhombus;whiteSpace=wrap;html=1;" vertex="1" parent="1">
          <mxGeometry x="1480" y="300" width="80" height="80" as="geometry" />
        </mxCell>
        <mxCell id="Yzk3Fqs6VaE2fxgBx44S-63" value="" style="edgeStyle=orthogonalEdgeStyle;rounded=0;orthogonalLoop=1;jettySize=auto;html=1;" edge="1" parent="1" source="Yzk3Fqs6VaE2fxgBx44S-60" target="Yzk3Fqs6VaE2fxgBx44S-62">
          <mxGeometry relative="1" as="geometry" />
        </mxCell>
        <mxCell id="Yzk3Fqs6VaE2fxgBx44S-76" value="não" style="edgeLabel;html=1;align=center;verticalAlign=middle;resizable=0;points=[];" vertex="1" connectable="0" parent="Yzk3Fqs6VaE2fxgBx44S-63">
          <mxGeometry x="-0.3283" y="4" relative="1" as="geometry">
            <mxPoint as="offset" />
          </mxGeometry>
        </mxCell>
        <mxCell id="Yzk3Fqs6VaE2fxgBx44S-69" value="" style="edgeStyle=orthogonalEdgeStyle;rounded=0;orthogonalLoop=1;jettySize=auto;html=1;" edge="1" parent="1" source="Yzk3Fqs6VaE2fxgBx44S-60" target="Yzk3Fqs6VaE2fxgBx44S-68">
          <mxGeometry relative="1" as="geometry" />
        </mxCell>
        <mxCell id="Yzk3Fqs6VaE2fxgBx44S-77" value="sim" style="edgeLabel;html=1;align=center;verticalAlign=middle;resizable=0;points=[];" vertex="1" connectable="0" parent="Yzk3Fqs6VaE2fxgBx44S-69">
          <mxGeometry x="-0.2248" y="3" relative="1" as="geometry">
            <mxPoint as="offset" />
          </mxGeometry>
        </mxCell>
        <mxCell id="Yzk3Fqs6VaE2fxgBx44S-60" value="N&amp;lt;66" style="rhombus;whiteSpace=wrap;html=1;" vertex="1" parent="1">
          <mxGeometry x="1480" y="460" width="80" height="80" as="geometry" />
        </mxCell>
        <mxCell id="Yzk3Fqs6VaE2fxgBx44S-71" value="" style="edgeStyle=orthogonalEdgeStyle;rounded=0;orthogonalLoop=1;jettySize=auto;html=1;" edge="1" parent="1" source="Yzk3Fqs6VaE2fxgBx44S-62" target="Yzk3Fqs6VaE2fxgBx44S-70">
          <mxGeometry relative="1" as="geometry" />
        </mxCell>
        <mxCell id="Yzk3Fqs6VaE2fxgBx44S-74" value="Sim" style="edgeLabel;html=1;align=center;verticalAlign=middle;resizable=0;points=[];" vertex="1" connectable="0" parent="Yzk3Fqs6VaE2fxgBx44S-71">
          <mxGeometry x="-0.2" y="3" relative="1" as="geometry">
            <mxPoint as="offset" />
          </mxGeometry>
        </mxCell>
        <mxCell id="Yzk3Fqs6VaE2fxgBx44S-73" value="" style="edgeStyle=orthogonalEdgeStyle;rounded=0;orthogonalLoop=1;jettySize=auto;html=1;" edge="1" parent="1" source="Yzk3Fqs6VaE2fxgBx44S-62" target="Yzk3Fqs6VaE2fxgBx44S-72">
          <mxGeometry relative="1" as="geometry" />
        </mxCell>
        <mxCell id="Yzk3Fqs6VaE2fxgBx44S-75" value="não" style="edgeLabel;html=1;align=center;verticalAlign=middle;resizable=0;points=[];" vertex="1" connectable="0" parent="Yzk3Fqs6VaE2fxgBx44S-73">
          <mxGeometry x="-0.171" y="3" relative="1" as="geometry">
            <mxPoint as="offset" />
          </mxGeometry>
        </mxCell>
        <mxCell id="Yzk3Fqs6VaE2fxgBx44S-62" value="N&amp;lt;150" style="rhombus;whiteSpace=wrap;html=1;" vertex="1" parent="1">
          <mxGeometry x="1480" y="620" width="80" height="80" as="geometry" />
        </mxCell>
        <mxCell id="Yzk3Fqs6VaE2fxgBx44S-89" style="edgeStyle=orthogonalEdgeStyle;rounded=0;orthogonalLoop=1;jettySize=auto;html=1;" edge="1" parent="1" source="Yzk3Fqs6VaE2fxgBx44S-66" target="Yzk3Fqs6VaE2fxgBx44S-85">
          <mxGeometry relative="1" as="geometry">
            <Array as="points">
              <mxPoint x="1840" y="340" />
              <mxPoint x="1840" y="980" />
            </Array>
          </mxGeometry>
        </mxCell>
        <mxCell id="Yzk3Fqs6VaE2fxgBx44S-66" value="Escrever &quot;Puto&quot;" style="shape=parallelogram;perimeter=parallelogramPerimeter;whiteSpace=wrap;html=1;fixedSize=1;" vertex="1" parent="1">
          <mxGeometry x="1620" y="310" width="120" height="60" as="geometry" />
        </mxCell>
        <mxCell id="Yzk3Fqs6VaE2fxgBx44S-88" style="edgeStyle=orthogonalEdgeStyle;rounded=0;orthogonalLoop=1;jettySize=auto;html=1;" edge="1" parent="1" source="Yzk3Fqs6VaE2fxgBx44S-68" target="Yzk3Fqs6VaE2fxgBx44S-85">
          <mxGeometry relative="1" as="geometry">
            <Array as="points">
              <mxPoint x="1840" y="500" />
              <mxPoint x="1840" y="980" />
            </Array>
          </mxGeometry>
        </mxCell>
        <mxCell id="Yzk3Fqs6VaE2fxgBx44S-68" value="Escrever &quot;Adulto&quot;" style="shape=parallelogram;perimeter=parallelogramPerimeter;whiteSpace=wrap;html=1;fixedSize=1;" vertex="1" parent="1">
          <mxGeometry x="1620" y="470" width="120" height="60" as="geometry" />
        </mxCell>
        <mxCell id="Yzk3Fqs6VaE2fxgBx44S-87" style="edgeStyle=orthogonalEdgeStyle;rounded=0;orthogonalLoop=1;jettySize=auto;html=1;" edge="1" parent="1" source="Yzk3Fqs6VaE2fxgBx44S-70" target="Yzk3Fqs6VaE2fxgBx44S-85">
          <mxGeometry relative="1" as="geometry">
            <Array as="points">
              <mxPoint x="1840" y="660" />
              <mxPoint x="1840" y="980" />
            </Array>
          </mxGeometry>
        </mxCell>
        <mxCell id="Yzk3Fqs6VaE2fxgBx44S-70" value="Escrever &quot;Velinho&quot;" style="shape=parallelogram;perimeter=parallelogramPerimeter;whiteSpace=wrap;html=1;fixedSize=1;" vertex="1" parent="1">
          <mxGeometry x="1620" y="630" width="120" height="60" as="geometry" />
        </mxCell>
        <mxCell id="Yzk3Fqs6VaE2fxgBx44S-84" value="" style="edgeStyle=orthogonalEdgeStyle;rounded=0;orthogonalLoop=1;jettySize=auto;html=1;" edge="1" parent="1" source="Yzk3Fqs6VaE2fxgBx44S-72" target="Yzk3Fqs6VaE2fxgBx44S-85">
          <mxGeometry relative="1" as="geometry">
            <mxPoint x="1520" y="920" as="targetPoint" />
          </mxGeometry>
        </mxCell>
        <mxCell id="Yzk3Fqs6VaE2fxgBx44S-72" value="Escrever &quot;Dinossaro&quot;" style="shape=parallelogram;perimeter=parallelogramPerimeter;whiteSpace=wrap;html=1;fixedSize=1;" vertex="1" parent="1">
          <mxGeometry x="1460" y="790" width="120" height="60" as="geometry" />
        </mxCell>
        <mxCell id="Yzk3Fqs6VaE2fxgBx44S-85" value="F" style="ellipse;whiteSpace=wrap;html=1;" vertex="1" parent="1">
          <mxGeometry x="1460" y="940" width="120" height="80" as="geometry" />
        </mxCell>
      </root>
    </mxGraphModel>
  </diagram>
</mxfile>
